# xmcd
#
# Track frame offsets: 
#        150
#        10501
#        26341
#        38866
#        52863
#        63550
#        76412
#        89691
#        105364
#        120235
#        131752
#        140076
#        153503
#        166432
#        178455
#        195285
#        205546
#        218229
#        238232
#        255592
#
# Disc length: 3612 seconds
#
# Revision: 0
# Processed by: cddbd v1.5.2PL0 Copyright (c) Steve Scherf et al.
# Submitted via: ExactAudioCopy v1.0b1
#
DISCID=0d0e1a14
DTITLE=Various Artist - Nasza mlodosc_02
DYEAR=2010
DGENRE=Disco polo
TTITLE0=01_W blekicie oczu Twych
TTITLE1=02_Juz nigdy
TTITLE2=03_Czumbalalajka
TTITLE3=04_Czy Ty wiesz moja mala
TTITLE4=05_Cicho grajcie mi juz
TTITLE5=06_Szczescie trzeba rwac
TTITLE6=07_Czy te oczy moga klamac
TTITLE7=08_Tango notturno
TTITLE8=09_Szkoda Twoich lez
TTITLE9=10_Pamietasz Capri
TTITLE10=11_Nasza jest noc
TTITLE11=12_Paloma, Paloma
TTITLE12=13_Tango andrusowskie
TTITLE13=14_Powiedz dlaczego
TTITLE14=15_Zloty pierscionek
TTITLE15=16_Piosenka o mojej Warszawie
TTITLE16=17_Bal na Gnojnej
TTITLE17=18_Polesia czar
TTITLE18=19_Kwiaty polskie
TTITLE19=20_Mezu moj,skarbie moj (Bonus)
EXTD=
EXTT0=
EXTT1=
EXTT2=
EXTT3=
EXTT4=
EXTT5=
EXTT6=
EXTT7=
EXTT8=
EXTT9=
EXTT10=
EXTT11=
EXTT12=
EXTT13=
EXTT14=
EXTT15=
EXTT16=
EXTT17=
EXTT18=
EXTT19=
PLAYORDER=
